<svg width="1500" height="279" viewBox="0 0 1500 279" fill="none" xmlns="http://www.w3.org/2000/svg">
<path d="M1.13249e-06 145L110.8 63H147.2V81.8L44 158.2L147.2 234.6V253.4H110.8L1.13249e-06 171.8V145ZM742.259 64.6V26.6H774.659V64.6H742.259ZM741.859 279V87.8H774.259V279H741.859ZM1085.72 279H1049.72L976.516 195.4V87.8H1013.32V181.4L1066.12 242.2H1068.12L1117.32 182.6V87.8H1153.72V195.8L1085.72 279ZM1388.29 253.4H1351.89V234.6L1455.09 158.2L1351.89 81.8V63H1388.29L1499.09 145V171.8L1388.29 253.4Z" fill="white"/>
<path d="M498.897 278.6V267.4L483.697 279H385.697L345.297 245V121.4L385.697 87.8H485.297L498.897 99.8V0.199989H535.697V278.6H498.897ZM498.897 148.6L477.697 125H398.897L382.097 139V227.4L398.897 241.4H479.297L498.897 222.6V148.6Z" fill="#EAC400"/>
</svg>
